<?xml version="1.0" encoding="UTF-8" standalone="no"?>
<!-- Created with Inkscape (http://www.inkscape.org/) -->

<svg
   width="1024"
   height="1024"
   viewBox="0 0 270.93332 270.93334"
   version="1.1"
   id="svg5"
   inkscape:version="1.2.1 (9c6d41e410, 2022-07-14)"
   sodipodi:docname="drawing.svg"
   inkscape:export-filename="drawing-2x.png"
   inkscape:export-xdpi="6.75"
   inkscape:export-ydpi="6.75"
   xmlns:inkscape="http://www.inkscape.org/namespaces/inkscape"
   xmlns:sodipodi="http://sodipodi.sourceforge.net/DTD/sodipodi-0.dtd"
   xmlns="http://www.w3.org/2000/svg"
   xmlns:svg="http://www.w3.org/2000/svg">
  <sodipodi:namedview
     id="namedview7"
     pagecolor="#ffffff"
     bordercolor="#666666"
     borderopacity="1.0"
     inkscape:showpageshadow="true"
     inkscape:pageopacity="0.0"
     inkscape:pagecheckerboard="false"
     inkscape:deskcolor="#d1d1d1"
     inkscape:document-units="mm"
     showgrid="false"
     showborder="false"
     inkscape:lockguides="true"
     inkscape:zoom="0.457453"
     inkscape:cx="454.69152"
     inkscape:cy="511.52796"
     inkscape:window-width="2560"
     inkscape:window-height="1377"
     inkscape:window-x="-8"
     inkscape:window-y="-8"
     inkscape:window-maximized="1"
     inkscape:current-layer="layer1" />
  <defs
     id="defs2" />
  <g
     inkscape:label="Layer 1"
     inkscape:groupmode="layer"
     id="layer1">
    <path
       id="path234"
       style="fill:#006600;stroke-width:0.121289;fill-opacity:1"
       d="m 111.91253,13.007191 a 24.38454,24.38454 0 0 0 -24.383842,24.384627 24.38454,24.38454 0 0 0 2.4446,10.636082 48.76908,97.538159 0 0 0 -0.40796,0.408746 48.76908,97.538159 0 0 0 -1.02462,1.08763 48.76908,97.538159 0 0 0 -1.01202,1.137246 48.76908,97.538159 0 0 0 -0.99862,1.184499 48.76908,97.538159 0 0 0 -0.98367,1.230966 48.76908,97.538159 0 0 0 -0.96871,1.27822 48.76908,97.538159 0 0 0 -0.95374,1.323899 48.76908,97.538159 0 0 0 -0.93721,1.369577 48.76908,97.538159 0 0 0 -0.92066,1.4129 48.76908,97.538159 0 0 0 -0.90414,1.45621 48.76908,97.538159 0 0 0 -0.88602,1.49952 48.76908,97.538159 0 0 0 -0.86789,1.54127 48.76908,97.538159 0 0 0 -0.84978,1.58143 48.76908,97.538159 0 0 0 -0.8301,1.6216 48.76908,97.538159 0 0 0 -0.8112,1.66098 48.76908,97.538159 0 0 0 -0.79071,1.69878 48.76908,97.538159 0 0 0 -0.77102,1.73658 48.76908,97.538159 0 0 0 -0.74898,1.77203 48.76908,97.538159 0 0 0 -0.7285,1.80746 48.76908,97.538159 0 0 0 -0.70645,1.84212 48.76908,97.538159 0 0 0 -0.6844,1.87441 48.76908,97.538159 0 0 0 -0.66234,1.90669 48.76908,97.538159 0 0 0 -0.63871,1.9382 48.76908,97.538159 0 0 0 -0.61588,1.96734 48.76908,97.538159 0 0 0 -0.59225,1.99649 48.76908,97.538159 0 0 0 -0.56862,2.02403 48.76908,97.538159 0 0 0 -0.54421,2.05084 48.76908,97.538159 0 0 0 -0.51901,2.07523 48.76908,97.538159 0 0 0 -0.49538,2.10044 48.76908,97.538159 0 0 0 -0.46939,2.12249 48.76908,97.538159 0 0 0 -0.444185,2.14454 48.76908,97.538159 0 0 0 -0.418198,2.165807 48.76908,97.538159 0 0 0 -0.392995,2.18392 48.76908,97.538159 0 0 0 -0.366219,2.20282 48.76908,97.538159 0 0 0 -0.340228,2.21936 48.76908,97.538159 0 0 0 -0.313452,2.23512 48.76908,97.538159 0 0 0 -0.182714,1.43021 24.38454,24.38454 0 0 0 -0.772603,-0.0137 24.38454,24.38454 0 0 0 -24.383839,24.38461 24.38454,24.38454 0 0 0 24.383839,24.38463 24.38454,24.38454 0 0 0 24.384634,-24.38463 24.38454,24.38454 0 0 0 -20.59644,-24.0877 45.721012,94.490092 0 0 1 0.24887,-1.96183 45.721012,94.490092 0 0 1 0.94429,-6.1501 45.721012,94.490092 0 0 1 1.14591,-6.002057 45.721012,94.490092 0 0 1 1.34044,-5.82641 45.721012,94.490092 0 0 1 1.53024,-5.624 45.721012,94.490092 0 0 1 1.71217,-5.39562 45.721012,94.490092 0 0 1 1.88622,-5.14044 45.721012,94.490092 0 0 1 2.05161,-4.86323 45.721012,94.490092 0 0 1 2.20755,-4.56237 45.721012,94.490092 0 0 1 2.35326,-4.24025 45.721012,94.490092 0 0 1 2.48791,-3.89846 45.721012,94.490092 0 0 1 2.61,-3.538532 45.721012,94.490092 0 0 1 2.72182,-3.162079 45.721012,94.490092 0 0 1 0.57965,-0.596188 24.38454,24.38454 0 0 0 20.453892,11.136979 24.38454,24.38454 0 0 0 20.45467,-11.136979 45.721012,94.490092 0 0 1 0.58044,0.596188 45.721012,94.490092 0 0 1 2.72182,3.162079 45.721012,94.490092 0 0 1 2.61,3.538532 45.721012,94.490092 0 0 1 2.48792,3.89846 45.721012,94.490092 0 0 1 2.35325,4.24025 45.721012,94.490092 0 0 1 2.20754,4.56237 45.721012,94.490092 0 0 1 2.05161,4.86323 45.721012,94.490092 0 0 1 1.88622,5.14044 45.721012,94.490092 0 0 1 1.71218,5.39562 45.721012,94.490092 0 0 1 1.53023,5.624 45.721012,94.490092 0 0 1 1.34045,5.82641 45.721012,94.490092 0 0 1 1.14591,6.002057 45.721012,94.490092 0 0 1 0.94429,6.1501 45.721012,94.490092 0 0 1 0.19374,1.53339 24.38454,24.38454 0 0 0 -20.54209,24.07276 24.38454,24.38454 0 0 0 2.44146,10.63056 48.76908,97.538159 0 0 0 -0.41427,0.41426 48.76908,97.538159 0 0 0 -1.02462,1.08763 48.76908,97.538159 0 0 0 -1.01202,1.13725 48.76908,97.538159 0 0 0 -0.99864,1.18449 48.76908,97.538159 0 0 0 -0.98367,1.23096 48.76908,97.538159 0 0 0 -0.96871,1.27823 48.76908,97.538159 0 0 0 -0.95374,1.32389 48.76908,97.538159 0 0 0 -0.9372,1.36959 48.76908,97.538159 0 0 0 -0.92067,1.41289 48.76908,97.538159 0 0 0 -0.90412,1.45621 48.76908,97.538159 0 0 0 -0.88601,1.49953 48.76908,97.538159 0 0 0 -0.86791,1.54127 48.76908,97.538159 0 0 0 -0.84978,1.58143 48.76908,97.538159 0 0 0 -0.8301,1.6216 48.76908,97.538159 0 0 0 -0.81118,1.66097 48.76908,97.538159 0 0 0 -0.79071,1.69878 48.76908,97.538159 0 0 0 -0.77104,1.73659 48.76908,97.538159 0 0 0 -0.74897,1.77202 48.76908,97.538159 0 0 0 -0.72851,1.80746 48.76908,97.538159 0 0 0 -0.70643,1.84212 48.76908,97.538159 0 0 0 -0.6844,1.87441 48.76908,97.538159 0 0 0 -0.66235,1.9067 48.76908,97.538159 0 0 0 -0.63872,1.9382 48.76908,97.538159 0 0 0 -0.61588,1.96733 48.76908,97.538159 0 0 0 -0.59224,1.99649 48.76908,97.538159 0 0 0 -0.56863,2.02405 48.76908,97.538159 0 0 0 -0.5442,2.05082 48.76908,97.538159 0 0 0 -0.51901,2.07523 48.76908,97.538159 0 0 0 -0.49537,2.10044 48.76908,97.538159 0 0 0 -0.4694,2.12249 48.76908,97.538159 0 0 0 -0.44418,2.14454 48.76908,97.538159 0 0 0 -0.4182,2.16581 48.76908,97.538159 0 0 0 -0.393,2.18392 48.76908,97.538159 0 0 0 -0.36621,2.20283 48.76908,97.538159 0 0 0 -0.34024,2.21935 48.76908,97.538159 0 0 0 -0.31345,2.23512 48.76908,97.538159 0 0 0 -0.18192,1.42313 24.38454,24.38454 0 0 0 -24.212162,24.37834 24.38454,24.38454 0 0 0 24.384632,24.38461 24.38454,24.38454 0 0 0 24.38463,-24.38461 24.38454,24.38454 0 0 0 -21.52575,-24.21452 45.721012,94.490092 0 0 1 0.23232,-1.83503 45.721012,94.490092 0 0 1 0.94429,-6.1501 45.721012,94.490092 0 0 1 1.14591,-6.00204 45.721012,94.490092 0 0 1 1.34045,-5.82643 45.721012,94.490092 0 0 1 1.53023,-5.624 45.721012,94.490092 0 0 1 1.71218,-5.39562 45.721012,94.490092 0 0 1 1.88622,-5.14044 45.721012,94.490092 0 0 1 2.05161,-4.86322 45.721012,94.490092 0 0 1 2.20754,-4.56238 45.721012,94.490092 0 0 1 2.35325,-4.24026 45.721012,94.490092 0 0 1 2.48792,-3.89845 45.721012,94.490092 0 0 1 2.60999,-3.53853 45.721012,94.490092 0 0 1 2.72183,-3.16208 45.721012,94.490092 0 0 1 0.58595,-0.60091 24.38454,24.38454 0 0 0 20.45782,11.14169 24.38454,24.38454 0 0 0 20.44995,-11.13067 45.721012,94.490092 0 0 1 0.57493,0.58989 45.721012,94.490092 0 0 1 2.72182,3.16208 45.721012,94.490092 0 0 1 2.61,3.53853 45.721012,94.490092 0 0 1 2.48792,3.89845 45.721012,94.490092 0 0 1 2.35325,4.24026 45.721012,94.490092 0 0 1 2.20754,4.56238 45.721012,94.490092 0 0 1 2.05161,4.86322 45.721012,94.490092 0 0 1 1.88622,5.14044 45.721012,94.490092 0 0 1 1.71218,5.39562 45.721012,94.490092 0 0 1 1.53023,5.624 45.721012,94.490092 0 0 1 1.34044,5.82643 45.721012,94.490092 0 0 1 1.14592,6.00204 45.721012,94.490092 0 0 1 0.94429,6.1501 45.721012,94.490092 0 0 1 0.23469,1.84999 24.38454,24.38454 0 0 0 -21.52812,24.19956 24.38454,24.38454 0 0 0 24.38463,24.38461 24.38454,24.38454 0 0 0 24.38384,-24.38461 24.38454,24.38454 0 0 0 -24.21216,-24.38227 48.76908,97.538159 0 0 0 -0.49537,-3.65432 48.76908,97.538159 0 0 0 -1.09945,-6.6061 48.76908,97.538159 0 0 0 -1.33178,-6.43284 48.76908,97.538159 0 0 0 -1.55858,-6.22649 48.76908,97.538159 0 0 0 -1.77675,-5.98787 48.76908,97.538159 0 0 0 -1.98547,-5.71931 48.76908,97.538159 0 0 0 -2.18391,-5.4216 48.76908,97.538159 0 0 0 -2.37216,-5.09634 48.76908,97.538159 0 0 0 -2.54856,-4.7443 48.76908,97.538159 0 0 0 -2.7108,-4.36863 48.76908,97.538159 0 0 0 -2.85965,-3.97091 48.76908,97.538159 0 0 0 -2.99354,-3.5535 48.76908,97.538159 0 0 0 -1.42628,-1.49165 24.38454,24.38454 0 0 0 2.44697,-10.6408 24.38454,24.38454 0 0 0 -24.38385,-24.38463 24.38454,24.38454 0 0 0 -0.82536,0.0306 48.76908,97.538159 0 0 0 -0.4434,-3.23926 48.76908,97.538159 0 0 0 -1.09945,-6.60611 48.76908,97.538159 0 0 0 -1.33177,-6.432837 48.76908,97.538159 0 0 0 -1.5586,-6.2265 48.76908,97.538159 0 0 0 -1.77674,-5.98786 48.76908,97.538159 0 0 0 -1.98545,-5.7193 48.76908,97.538159 0 0 0 -2.18393,-5.42161 48.76908,97.538159 0 0 0 -2.37216,-5.09634 48.76908,97.538159 0 0 0 -2.54855,-4.7443 48.76908,97.538159 0 0 0 -2.71081,-4.368631 48.76908,97.538159 0 0 0 -2.85965,-3.970908 48.76908,97.538159 0 0 0 -2.99354,-3.5535 48.76908,97.538159 0 0 0 -1.4318,-1.497951 24.38454,24.38454 0 0 0 2.44304,-10.634506 24.38454,24.38454 0 0 0 -24.38463,-24.384627 z" />
  </g>
</svg>
